<svg width="20" height="20" viewBox="0 0 20 20" fill="none" xmlns="http://www.w3.org/2000/svg">
<path d="M19.9849 6.80364C19.9803 6.7794 19.9763 6.75516 19.9698 6.73146C19.9658 6.71719 19.9609 6.70372 19.9564 6.68972C19.9496 6.66871 19.9426 6.6477 19.9343 6.62723C19.9284 6.61296 19.9216 6.59922 19.9152 6.58549C19.906 6.56609 19.8966 6.54697 19.8858 6.52839C19.8783 6.51465 19.8696 6.50172 19.8613 6.48853C19.8497 6.47075 19.8379 6.45324 19.8249 6.43628C19.8155 6.42362 19.8058 6.4115 19.7956 6.39938C19.7821 6.38322 19.7676 6.36787 19.753 6.35278C19.7417 6.34147 19.7304 6.33016 19.7185 6.31912C19.7029 6.30484 19.6868 6.29138 19.6698 6.27845C19.6569 6.26848 19.6442 6.25825 19.6307 6.24909C19.6259 6.24559 19.6216 6.24155 19.6165 6.23832L10.4764 0.144429C10.188 -0.048143 9.81174 -0.048143 9.52328 0.144429L0.38272 6.23805C0.377602 6.24128 0.373562 6.24532 0.368445 6.24882C0.354979 6.25825 0.34232 6.26821 0.329392 6.27818C0.312694 6.29138 0.296264 6.30484 0.280643 6.31858C0.268793 6.32935 0.257481 6.34066 0.246438 6.35224C0.231356 6.36733 0.21735 6.38268 0.203614 6.39884C0.19338 6.41096 0.183684 6.42308 0.174257 6.43655C0.161329 6.45351 0.149479 6.47075 0.137898 6.4888C0.129548 6.50199 0.121199 6.51492 0.113388 6.52866C0.102615 6.54724 0.0931886 6.56636 0.0843007 6.58522C0.0778367 6.59895 0.0708341 6.61296 0.0651782 6.62696C0.0568289 6.64743 0.049557 6.66844 0.0428237 6.68945C0.038245 6.70345 0.0333971 6.71719 0.0296264 6.72985C0.0234318 6.75355 0.0188532 6.77752 0.0145439 6.80203C0.0121199 6.81442 0.00915726 6.82654 0.00754128 6.8392C0.00269331 6.87636 0 6.91353 0 6.95151V13.0465C0 13.0842 0.00269331 13.1219 0.00807994 13.1588C0.00996526 13.1723 0.0134666 13.183 0.0161599 13.196C0.0204692 13.2202 0.0242398 13.2444 0.0323198 13.2687C0.0360904 13.2821 0.0403997 13.2956 0.0457863 13.3104C0.0525196 13.332 0.0592529 13.3535 0.0673328 13.3732C0.0729888 13.3866 0.0807994 13.4001 0.086186 13.4136C0.0950739 13.4324 0.105039 13.4513 0.115812 13.4709C0.123354 13.4844 0.131972 13.4979 0.140052 13.5103C0.151634 13.5291 0.164292 13.5453 0.177759 13.5614C0.187185 13.5749 0.196612 13.5857 0.207385 13.5986C0.221121 13.6148 0.234318 13.6309 0.250478 13.6452C0.261521 13.656 0.272025 13.6694 0.285491 13.6775C0.301112 13.691 0.317811 13.7044 0.333971 13.7185C0.346899 13.7292 0.360904 13.7373 0.371677 13.7478C0.376794 13.7505 0.379757 13.7559 0.385144 13.7583L9.52328 19.8552C9.66765 19.9521 9.83301 20.0006 10 19.9998C10.167 19.999 10.3324 19.9513 10.4767 19.8552L19.6173 13.7615C19.6224 13.7583 19.6267 13.7545 19.6316 13.751C19.645 13.7416 19.6577 13.7317 19.6706 13.7217C19.6873 13.7085 19.7037 13.6948 19.7194 13.6807C19.7312 13.6702 19.7425 13.6587 19.7538 13.6474C19.7686 13.6323 19.7829 13.6169 19.7964 13.6008C19.8066 13.5886 19.8163 13.5765 19.8257 13.5636C19.8387 13.5466 19.8505 13.5291 19.8621 13.5113C19.8705 13.4984 19.8788 13.4852 19.8866 13.472C19.8974 13.4532 19.9068 13.434 19.916 13.4146C19.9224 13.4009 19.9292 13.3872 19.9351 13.3732C19.9434 13.3524 19.9504 13.3314 19.9572 13.3104C19.9618 13.2964 19.9666 13.2827 19.9706 13.2687C19.9768 13.245 19.9811 13.2207 19.9857 13.1965C19.9879 13.1841 19.9911 13.172 19.9925 13.1593C19.9973 13.1222 20 13.085 20 13.047V6.95312C20 6.91515 19.997 6.87798 19.9925 6.84081C19.9903 6.82761 19.9863 6.81684 19.9836 6.80364H19.9849ZM9.99973 12.033L6.96033 10.0001L9.99973 7.96689L13.0394 10.0001L9.99973 12.033ZM9.14056 6.47398L5.41464 8.9661L2.40701 6.9542L9.14056 2.46526V6.47398ZM3.86894 9.9998L1.71914 11.4378V8.56184L3.86894 9.9998ZM5.41464 11.0346L9.14056 13.5264V17.5351L2.40701 13.0457L5.41464 11.034V11.0346ZM10.8592 13.5259L14.5851 11.034L17.593 13.0457L10.8592 17.5346V13.5259ZM16.1308 10.0003L18.2809 8.56211V11.4383L16.1308 9.9998V10.0003ZM14.5851 8.9661L10.8592 6.47425V2.46526L17.593 6.9542L14.5851 8.9661Z" fill="#EEEEEE" fill-opacity="0.9"/>
</svg>
