<svg width="20" height="20" viewBox="0 0 20 20" fill="none" xmlns="http://www.w3.org/2000/svg">
<path d="M19.9852 4.30841C19.9852 4.28556 20.001 4.26331 19.9999 4.24072L13.8966 10.1216L19.9926 15.8146C19.9962 15.7739 19.9852 15.7329 19.9852 15.6914V4.30841Z" fill="#EEEEEE" fill-opacity="0.9"/>
<path d="M12.9649 11.0266L10.4734 13.4238C10.3473 13.5451 10.1845 13.6059 10.0215 13.6059C9.86199 13.6059 9.70246 13.5477 9.57725 13.431L7.09248 11.1156L0.956665 17.0298C1.10586 17.0834 1.266 17.1251 1.4337 17.1251H18.6094C18.8585 17.1251 19.092 17.0492 19.2951 16.9361L12.9649 11.0266Z" fill="#EEEEEE" fill-opacity="0.9"/>
<path d="M10.0144 12.0568L19.3289 3.08425C19.118 2.95887 18.8726 2.87476 18.6095 2.87476H1.43373C1.09111 2.87476 0.777169 3.00779 0.532654 3.21068L10.0144 12.0568Z" fill="#EEEEEE" fill-opacity="0.9"/>
<path d="M0 4.5271V15.6914C0 15.8195 0.0294565 15.9431 0.0614329 16.0612L6.12113 10.2258L0 4.5271Z" fill="#EEEEEE" fill-opacity="0.9"/>
</svg>
