<svg width="20" height="20" viewBox="0 0 20 20" fill="none" xmlns="http://www.w3.org/2000/svg">
<g clip-path="url(#clip0_15_118)">
<path fill-rule="evenodd" clip-rule="evenodd" d="M6.80064 18.596C8.01442 18.596 9.00002 17.6104 9.00002 16.3966V14.1973H6.80064C5.58686 14.1973 4.60126 15.1829 4.60126 16.3966C4.60126 17.6104 5.58686 18.596 6.80064 18.596ZM6.80064 13.1973C5.03458 13.1973 3.60126 14.6306 3.60126 16.3966C3.60126 18.1627 5.03458 19.596 6.80064 19.596C8.5667 19.596 10 18.1627 10 16.3966V13.1973H6.80064Z" fill="#EEEEEE" fill-opacity="0.9"/>
<path fill-rule="evenodd" clip-rule="evenodd" d="M6.80064 7.79858C5.58686 7.79858 4.60126 8.78419 4.60126 9.99794C4.60126 11.2117 5.58686 12.1973 6.80064 12.1973H9.00002V7.79858H6.80064ZM6.80064 6.79858C5.03458 6.79858 3.60126 8.2319 3.60126 9.99794C3.60126 11.764 5.03458 13.1973 6.80064 13.1973H10V6.79858H6.80064Z" fill="#EEEEEE" fill-opacity="0.9"/>
<path fill-rule="evenodd" clip-rule="evenodd" d="M6.80064 1.3999C5.58686 1.3999 4.60126 2.38551 4.60126 3.59926C4.60126 4.81302 5.58686 5.79862 6.80064 5.79862H9.00002V1.3999H6.80064ZM6.80064 0.399902C5.03458 0.399902 3.60126 1.83322 3.60126 3.59926C3.60126 5.36531 5.03458 6.79862 6.80064 6.79862H10V0.399902H6.80064Z" fill="#EEEEEE" fill-opacity="0.9"/>
<path fill-rule="evenodd" clip-rule="evenodd" d="M13.1994 1.3999H11V5.79862H13.1994C14.4131 5.79862 15.3987 4.81302 15.3987 3.59926C15.3987 2.3855 14.4131 1.3999 13.1994 1.3999ZM10 0.399902V6.79862H13.1994C14.9654 6.79862 16.3987 5.36531 16.3987 3.59926C16.3987 1.83322 14.9654 0.399902 13.1994 0.399902H10Z" fill="#EEEEEE" fill-opacity="0.9"/>
<path fill-rule="evenodd" clip-rule="evenodd" d="M13.1994 12.1973C14.4131 12.1973 15.3987 11.2117 15.3987 9.99794C15.3987 8.78418 14.4131 7.79858 13.1994 7.79858C11.9856 7.79858 11 8.78418 11 9.99794C11 11.2117 11.9856 12.1973 13.1994 12.1973ZM13.1994 13.1973C14.9654 13.1973 16.3987 11.764 16.3987 9.99794C16.3987 8.2319 14.9654 6.79858 13.1994 6.79858C11.4333 6.79858 10 8.2319 10 9.99794C10 11.764 11.4333 13.1973 13.1994 13.1973Z" fill="#EEEEEE" fill-opacity="0.9"/>
</g>
<defs>
<clipPath id="clip0_15_118">
<rect width="12.8" height="19.1962" fill="white" transform="translate(3.59998 0.399902)"/>
</clipPath>
</defs>
</svg>
