<svg width="20" height="20" viewBox="0 0 20 20" fill="none" xmlns="http://www.w3.org/2000/svg">
<g clip-path="url(#clip0_15_99)">
<path d="M19.6234 9.10887L10.8911 0.377223C10.3886 -0.125741 9.57295 -0.125741 9.06976 0.377223L7.25651 2.19048L9.55671 4.49069C10.0913 4.31008 10.7042 4.43122 11.1303 4.85738C11.5585 5.28617 11.6787 5.90434 11.4937 6.44066L13.7105 8.65747C14.2469 8.4727 14.8657 8.5923 15.294 9.02131C15.8927 9.61973 15.8927 10.5897 15.294 11.1885C14.6952 11.7874 13.7252 11.7874 13.1262 11.1885C12.6759 10.7378 12.5646 10.0764 12.7926 9.52164L10.7252 7.45427L10.725 12.8947C10.871 12.9671 11.0088 13.0635 11.1303 13.1846C11.729 13.783 11.729 14.7529 11.1303 15.3522C10.5315 15.9509 9.5611 15.9509 8.96311 15.3522C8.36447 14.7529 8.36447 13.783 8.96311 13.1846C9.11102 13.0369 9.28218 12.9252 9.46476 12.8502V7.35903C9.28218 7.28442 9.11124 7.17338 8.96311 7.0246C8.50953 6.57167 8.40046 5.9061 8.63285 5.34915L6.36557 3.08142L0.378059 9.06849C-0.125124 9.57189 -0.125124 10.3876 0.378059 10.8905L9.11036 19.6224C9.6131 20.1254 10.4286 20.1254 10.932 19.6224L19.6234 10.9311C20.1264 10.4279 20.1264 9.61183 19.6234 9.10887Z" fill="#EEEEEE" fill-opacity="0.9"/>
</g>
<defs>
<clipPath id="clip0_15_99">
<rect width="20" height="20" fill="white"/>
</clipPath>
</defs>
</svg>
