<svg width="20" height="20" viewBox="0 0 20 20" fill="none" xmlns="http://www.w3.org/2000/svg">
<path d="M2.60747 1.11127C1.73508 1.62926 0.0163018 3.60381 0 4.12163V4.97878C0 6.0653 1.0156 7.02025 1.93771 7.02025C3.04493 7.02025 3.96745 6.10263 3.96753 5.0135C3.96753 6.10263 4.85842 7.02025 5.96572 7.02025C7.0731 7.02025 7.93538 6.10263 7.93538 5.0135C7.93538 6.10263 8.88268 7.02025 9.98997 7.02025H10.01C11.1174 7.02025 12.0647 6.10263 12.0647 5.0135C12.0647 6.10263 12.9271 7.02025 14.0343 7.02025C15.1416 7.02025 16.0325 6.10263 16.0325 5.0135C16.0325 6.10263 16.9552 7.02025 18.0623 7.02025C18.9844 7.02025 20 6.06546 20 4.97878V4.12163C19.9837 3.60373 18.2649 1.62909 17.3927 1.11127C14.6812 1.01606 12.8015 0.9996 9.99992 1.00001C7.19846 1.00025 3.37911 1.04402 2.60731 1.11127H2.60747ZM7.92136 6.50854C7.81549 6.6931 7.68435 6.86196 7.53175 7.01023C7.11377 7.41891 6.54084 7.67224 5.90923 7.67224C5.30145 7.67281 4.71768 7.43501 4.28329 7.0099C4.13185 6.86156 4.01676 6.70294 3.91137 6.51824L3.91088 6.51857C3.80557 6.70359 3.65885 6.86213 3.50708 7.01064C3.07253 7.43543 2.48883 7.67303 1.88114 7.67249C1.80501 7.67249 1.72579 7.65146 1.66172 7.62945C1.57271 8.55637 1.53514 9.44221 1.52185 10.0881L1.52169 10.0918C1.52006 10.4197 1.51843 10.6895 1.5168 11.0642C1.53392 13.009 1.32419 17.3676 2.37427 18.4385C4.00152 18.8179 6.99583 18.9907 9.99984 18.9918H10.0003C13.0043 18.9907 15.9986 18.8179 17.6258 18.4385C18.6759 17.3675 18.4662 13.0089 18.4833 11.0641C18.4815 10.6895 18.48 10.4197 18.4784 10.0917L18.4781 10.088C18.4649 9.44197 18.4274 8.55621 18.3384 7.62929C18.2743 7.6513 18.1952 7.67233 18.1189 7.67233C17.5113 7.67287 16.9275 7.43527 16.493 7.01047C16.3412 6.86196 16.1945 6.70351 16.0891 6.5184L16.0886 6.51808C15.9832 6.70278 15.8682 6.86147 15.7167 7.00974C15.2823 7.43481 14.6986 7.67259 14.0909 7.672C13.4593 7.672 12.8863 7.41851 12.4683 7.0099C12.3157 6.86163 12.1846 6.69277 12.0787 6.50822C11.974 6.69257 11.8441 6.86142 11.6927 7.0099C11.2582 7.43493 10.6744 7.67267 10.0666 7.67208C10.0446 7.67208 10.0226 7.6711 10.0006 7.67045H10C9.97799 7.6711 9.95599 7.67208 9.93373 7.67208C9.32594 7.67269 8.74213 7.43498 8.30763 7.00998C8.15627 6.8615 8.02634 6.69265 7.92161 6.5083L7.92136 6.50854ZM6.25157 8.66771L6.25141 8.66853H6.25263C6.91391 8.66991 7.50135 8.66853 8.22922 9.46291C8.80206 9.40284 9.40067 9.37285 9.99976 9.37374H10.0002C10.5993 9.37293 11.1979 9.40284 11.7709 9.46291C12.4987 8.66845 13.0862 8.66983 13.7475 8.66853H13.7486L13.7484 8.66771C14.0609 8.66771 15.3106 8.66771 16.1815 11.1135L17.1169 14.4689C17.81 16.965 16.8949 17.026 15.7535 17.0282C14.0607 16.9652 13.1234 15.7359 13.1234 14.5068C12.1864 14.6603 11.0933 14.7371 10.0002 14.7372H9.99967C8.90648 14.7372 7.81336 14.6603 6.87642 14.5068C6.87642 15.7359 5.93906 16.9652 4.24637 17.0282C3.10492 17.026 2.1899 16.9651 2.88305 14.4689L3.81869 11.1136C4.68953 8.66779 5.93931 8.66779 6.25173 8.66779L6.25157 8.66771ZM9.99976 10.5899V10.5903C9.99813 10.592 8.21773 12.227 7.89764 12.8086L9.06354 12.7619V13.7786C9.06354 13.8262 9.53141 13.8068 9.99976 13.7852H10.0002C10.4684 13.8068 10.9364 13.8262 10.9364 13.7786V12.7619L12.1023 12.8086C11.7821 12.227 10.0002 10.5903 10.0002 10.5903V10.5899L9.99992 10.59L9.99976 10.5899Z" fill="#EEEEEE" fill-opacity="0.9"/>
</svg>
