<svg width="20" height="20" viewBox="0 0 20 20" fill="none" xmlns="http://www.w3.org/2000/svg">
<path fill-rule="evenodd" clip-rule="evenodd" d="M20 0H0V20H20V0ZM6.78922 15.7872L5.25875 16.7134L5.25867 16.7133C5.70172 17.653 6.57445 18.4317 8.07797 18.4317C9.74281 18.4317 10.8839 17.5456 10.8839 15.599V9.18195H9.00445V15.5724C9.00445 16.5121 8.615 16.7537 7.99742 16.7537C7.35312 16.7537 7.08453 16.3107 6.78922 15.7872ZM13.4351 15.626L11.9048 16.512L11.9047 16.5121C12.4551 17.5996 13.5828 18.432 15.328 18.432C17.1136 18.432 18.4427 17.5057 18.4427 15.814C18.4427 14.2434 17.5432 13.5453 15.9455 12.8605L15.4757 12.6592C14.6702 12.3102 14.3212 12.0818 14.3212 11.518C14.3212 11.0616 14.6702 10.7125 15.2207 10.7125C15.7577 10.7125 16.1066 10.9407 16.4289 11.518L17.8923 10.5781C17.2748 9.4907 16.4156 9.07445 15.2208 9.07445C13.5426 9.07445 12.4686 10.1485 12.4686 11.5582C12.4686 13.0887 13.368 13.8137 14.7241 14.3908L15.1938 14.5923C16.053 14.9681 16.5632 15.1964 16.5632 15.8408C16.5632 16.3778 16.0666 16.7672 15.2878 16.7672C14.3616 16.7672 13.838 16.2839 13.4351 15.626Z" fill="#EEEEEE" fill-opacity="0.9"/>
</svg>
