<svg width="20" height="20" viewBox="0 0 20 20" fill="none" xmlns="http://www.w3.org/2000/svg">
<g clip-path="url(#clip0_15_97)">
<path d="M9.64377 0C9.49685 0 9.3856 0.00108333 9.3451 0.00558333C9.3021 0.01 9.16518 0.0230833 9.0421 0.0329167C6.20143 0.289 3.54068 1.8215 1.85543 4.17692C0.917017 5.48667 0.31685 6.97217 0.0901831 8.54583C0.0100164 9.095 0.000183105 9.25725 0.000183105 10.002C0.000183105 10.7467 0.0101831 10.909 0.0901831 11.4583C0.633516 15.2133 3.3061 18.3682 6.93077 19.5371C7.57985 19.7463 8.2641 19.889 9.04218 19.975C9.34518 20.0083 10.655 20.0083 10.958 19.975C12.3011 19.8264 13.439 19.4942 14.5611 18.9214C14.7332 18.8334 14.7664 18.81 14.743 18.7903C14.7274 18.7787 13.9941 17.7955 13.1144 16.607L11.5153 14.447L9.51135 11.4817C8.40877 9.85142 7.5016 8.51842 7.49377 8.51842C7.48593 8.51625 7.47818 9.834 7.47418 11.4426C7.4686 14.2594 7.46643 14.3728 7.43118 14.4392C7.38035 14.5351 7.34118 14.5741 7.25918 14.6171C7.19668 14.6483 7.14185 14.6542 6.84668 14.6542H6.50835L6.41852 14.5975C6.36281 14.5626 6.31755 14.5133 6.28752 14.4548L6.24643 14.3668L6.25085 10.4477L6.25643 6.5265L6.31693 6.45025C6.34827 6.40917 6.41477 6.3565 6.4616 6.33108C6.54177 6.29192 6.5731 6.288 6.91127 6.288C7.31018 6.288 7.3766 6.30358 7.48018 6.41692C7.5096 6.44833 8.5946 8.0825 9.89268 10.0509C11.207 12.0433 12.5221 14.0351 13.838 16.0264L15.4215 18.4249L15.5015 18.3722C16.2114 17.9108 16.9619 17.254 17.5563 16.5699C18.8212 15.1175 19.6365 13.3466 19.9102 11.4583C19.9903 10.909 20 10.7466 20 10.002C20 9.25725 19.99 9.095 19.9102 8.54567C19.3667 4.79067 16.6942 1.63575 13.0696 0.466917C12.4303 0.259667 11.7499 0.116917 10.9875 0.0309167C10.8467 0.01625 10.0846 0.000416667 9.64393 8.33333e-05L9.64377 0ZM13.0342 6.01417C13.3236 6.01417 13.3743 6.01858 13.4389 6.05333C13.5328 6.10017 13.6089 6.19017 13.6364 6.28392C13.6519 6.33475 13.6559 7.42167 13.6519 9.87092L13.6464 13.3855L13.0267 12.4355L12.4049 11.4855V8.9305C12.4049 7.27883 12.4127 6.35025 12.4244 6.30533C12.4557 6.19592 12.5241 6.10983 12.618 6.05908C12.6981 6.01792 12.7274 6.01408 13.0344 6.01408L13.0342 6.01417Z" fill="#EEEEEE" fill-opacity="0.9"/>
</g>
<defs>
<clipPath id="clip0_15_97">
<rect width="20" height="20" fill="white"/>
</clipPath>
</defs>
</svg>
