<svg width="20" height="20" viewBox="0 0 20 20" fill="none" xmlns="http://www.w3.org/2000/svg">
<g clip-path="url(#clip0_26_1244)">
<path d="M8.10533 19.7946C8.34016 19.93 8.60581 20 8.87379 20L8.87333 19.9963C9.14458 19.9963 9.41069 19.9267 9.64553 19.7908L16.9726 15.5591C17.4455 15.2837 17.7411 14.772 17.7411 14.2234V5.76654C17.7411 5.2161 17.4455 4.70395 16.973 4.43083L9.646 0.196786C9.18519 -0.0655952 8.56893 -0.0655952 8.10486 0.196786L0.768468 4.42896C0.293661 4.70068 0 5.21424 0 5.76467V14.2216C0 14.7697 0.293661 15.2837 0.768934 15.5591L2.6915 16.667C3.62338 17.1255 3.95719 17.1255 4.38111 17.1255C5.75884 17.1255 6.55112 16.2907 6.55112 14.8378V6.48739C6.55112 6.36787 6.45587 6.27636 6.34009 6.27636H5.41195C5.29244 6.27636 5.19906 6.36834 5.19906 6.48739V14.8336C5.19906 15.4793 4.53331 16.1212 3.44363 15.5764L1.43656 14.4172C1.36653 14.3789 1.32264 14.3019 1.32264 14.2211V5.76421C1.32264 5.68344 1.36793 5.60454 1.43889 5.56439L8.76315 1.33782C8.83084 1.29766 8.92095 1.29766 8.98864 1.33782L16.3138 5.56485C16.3834 5.60687 16.4273 5.68204 16.4273 5.76654V14.223C16.4273 14.3037 16.3829 14.3822 16.3152 14.4209L8.98678 18.6512C8.92422 18.6881 8.82757 18.6881 8.75988 18.6512L6.88026 17.5359C6.82423 17.5027 6.7528 17.4915 6.69818 17.5228C6.17809 17.8183 6.07958 17.8571 5.59217 18.0275C5.47171 18.069 5.29337 18.1414 5.65893 18.3459L8.10533 19.7946Z" fill="#EEEEEE" fill-opacity="0.9"/>
<path d="M7.25889 11.4661C7.25889 12.7005 7.93119 14.1725 11.1376 14.1725L11.1274 14.181C13.4496 14.181 14.7816 13.2654 14.7816 11.6697C14.7816 10.0865 13.712 9.66445 11.4593 9.36566C9.18473 9.06453 8.95363 8.90859 8.95363 8.37496C8.95363 7.9347 9.14971 7.34785 10.8356 7.34785C12.3417 7.34785 12.8959 7.67232 13.1251 8.68683C13.1452 8.78254 13.2316 8.8521 13.3305 8.8521H14.2825C14.3413 8.8521 14.3983 8.82642 14.4384 8.7844C14.479 8.74005 14.501 8.68169 14.4954 8.621C14.3488 6.87117 13.1858 6.05648 10.8393 6.05648C8.75007 6.05648 7.5026 6.937 7.5026 8.41558C7.5026 10.0207 8.7426 10.4628 10.7497 10.6608C13.1489 10.8956 13.3361 11.2457 13.3361 11.7173C13.3361 12.5366 12.6793 12.8854 11.1348 12.8854C9.19594 12.8854 8.77015 12.3989 8.62729 11.4344C8.61095 11.3312 8.52271 11.2551 8.41813 11.2551H7.47132C7.35367 11.2551 7.25889 11.3489 7.25889 11.4661Z" fill="#EEEEEE" fill-opacity="0.9"/>
</g>
<defs>
<clipPath id="clip0_26_1244">
<rect width="20" height="20" fill="white"/>
</clipPath>
</defs>
</svg>
