<svg width="20" height="20" viewBox="0 0 20 20" fill="none" xmlns="http://www.w3.org/2000/svg">
<g clip-path="url(#clip0_15_90)">
<path fill-rule="evenodd" clip-rule="evenodd" d="M12.7541 8.41099C12.4482 7.88121 12.1276 7.37164 11.798 6.88781C11.2155 6.84398 10.6141 6.821 10.0001 6.821H9.99981C9.38808 6.821 8.78649 6.84386 8.20266 6.88743C7.87348 7.36992 7.55285 7.87931 7.24588 8.411L7.24572 8.41127C6.93754 8.94507 6.6546 9.48154 6.3989 10.0128C6.65716 10.5348 6.94082 11.0631 7.24588 11.5915C7.5535 12.1243 7.87433 12.6378 8.20365 13.1253C8.78663 13.1629 9.38799 13.1815 10.0001 13.1815C10.6154 13.1815 11.2205 13.1604 11.8073 13.1189C12.1313 12.6328 12.4482 12.1214 12.7542 11.5912C13.0595 11.0625 13.3418 10.5319 13.5978 10.0069C13.3439 9.47884 13.0622 8.94471 12.7542 8.41127L12.7541 8.41099ZM14.0911 11.1077C13.924 11.4257 13.7488 11.7436 13.5661 12.06C13.3811 12.3804 13.1916 12.6955 12.9982 13.0037C13.588 12.9305 14.1512 12.8351 14.6781 12.7185C14.5165 12.1995 14.3203 11.6598 14.0911 11.1077ZM11.1205 14.0961C10.7507 14.1114 10.3767 14.119 10.0001 14.119C9.63014 14.119 9.26247 14.1124 8.89882 14.099C9.26786 14.5873 9.64309 15.0394 10.0184 15.4467C10.3883 15.0383 10.7572 14.5851 11.1205 14.0961ZM10.6776 16.1153C11.2419 15.4964 11.797 14.7874 12.3302 14.0176C13.2483 13.9354 14.125 13.8036 14.9298 13.6229C14.9767 13.8153 15.018 14.0038 15.0538 14.1878C15.2508 15.2007 15.2729 16.0674 15.1598 16.719C15.0439 17.3873 14.8044 17.7402 14.5675 17.8769C14.3153 18.0225 13.8594 18.0528 13.1821 17.7991C12.5218 17.5517 11.7353 17.0627 10.9096 16.3279C10.8325 16.2592 10.7551 16.1883 10.6776 16.1153ZM9.36441 16.1203C8.79323 15.5045 8.22838 14.7976 7.68683 14.0274C6.75759 13.9509 5.86971 13.8255 5.05449 13.6474C5.00243 13.8595 4.95714 14.0666 4.91883 14.2678C4.72858 15.2672 4.71486 16.1129 4.83282 16.7463C4.95331 17.3933 5.19335 17.7389 5.43242 17.8769C5.68201 18.021 6.13507 18.0563 6.80061 17.8216C7.4497 17.5928 8.22182 17.1319 9.02662 16.4291C9.13898 16.331 9.25161 16.2279 9.36441 16.1203ZM4.14556 13.4176C4.08899 13.6477 4.03968 13.8729 3.99787 14.0925C3.79295 15.1689 3.76582 16.1374 3.91116 16.9179C4.05396 17.6847 4.38136 18.3526 4.96367 18.6888C5.56059 19.0334 6.33938 18.9784 7.11237 18.7058C7.90179 18.4274 8.7749 17.8936 9.64333 17.1352C9.7702 17.0244 9.89698 16.9083 10.0235 16.7871C10.1112 16.8699 10.1988 16.9503 10.2863 17.0282C11.1708 17.8154 12.0548 18.3779 12.8532 18.677C13.6346 18.9697 14.4255 19.0414 15.0363 18.6888C15.6276 18.3474 15.9483 17.6585 16.0835 16.8793C16.2216 16.0834 16.1856 15.0968 15.9741 14.0089C15.9347 13.8063 15.8892 13.5995 15.8377 13.3888C15.9708 13.3497 16.1012 13.309 16.2287 13.2667C17.3526 12.8943 18.2818 12.41 18.94 11.8682C19.5842 11.3378 20.0418 10.6887 20.0418 9.98345C20.0418 9.30072 19.6055 8.67846 18.9983 8.17176C18.3781 7.65425 17.5057 7.1921 16.4577 6.83132C16.2626 6.76416 16.0607 6.70014 15.8526 6.6394C15.8852 6.5046 15.9151 6.37134 15.9423 6.23978C16.1818 5.08023 16.227 4.03341 16.0868 3.19244C15.9496 2.36939 15.6162 1.64853 15.0055 1.29592C14.4142 0.954549 13.6572 1.02122 12.9147 1.29377C12.1565 1.57213 11.32 2.09656 10.4836 2.82371C10.3252 2.96144 10.1661 3.10691 10.0066 3.2597C9.8229 3.08212 9.63976 2.91452 9.4579 2.75766C8.6282 2.04201 7.80299 1.53424 7.05441 1.26987C6.31894 1.01014 5.57681 0.959717 4.9945 1.29592C4.39758 1.64055 4.05589 2.34253 3.90544 3.14825C3.75179 3.97109 3.77758 4.99416 4.00013 6.12542C4.03333 6.29414 4.07139 6.46555 4.11408 6.63937C3.88658 6.70541 3.66688 6.77531 3.4558 6.8489C2.42117 7.20962 1.56883 7.67039 0.965594 8.18649C0.372921 8.69356 -0.0418091 9.31105 -0.0418091 9.98345C-0.0418091 10.6727 0.395283 11.3196 1.01783 11.8528C1.65361 12.3973 2.5525 12.8865 3.64348 13.2593C3.8062 13.315 3.97368 13.3677 4.14556 13.4176ZM4.39719 12.5145C4.24255 12.4694 4.09226 12.422 3.94663 12.3722C2.93559 12.0266 2.1504 11.5884 1.62764 11.1407C1.09164 10.6817 0.895691 10.2717 0.895691 9.98345C0.895691 9.70739 1.07495 9.32673 1.57506 8.89885C2.06461 8.48001 2.80386 8.06904 3.76443 7.73414C3.95785 7.66671 4.15982 7.60239 4.36958 7.5414C4.62375 8.33891 4.96036 9.17324 5.36035 10.0189C4.96916 10.8729 4.64502 11.7146 4.39719 12.5145ZM5.30792 12.7431C5.84241 12.8578 6.4143 12.9496 7.01397 13.019C6.81589 12.7065 6.62225 12.3864 6.43398 12.0603C6.25124 11.7437 6.0752 11.426 5.90687 11.1082C5.67319 11.6687 5.47271 12.2169 5.30792 12.7431ZM5.89442 8.92636C5.65431 8.37157 5.4476 7.82962 5.27946 7.30872C5.81896 7.18803 6.39564 7.08733 6.99969 7.00936C6.80666 7.31262 6.61777 7.62391 6.43398 7.94225L6.43382 7.94252C6.24513 8.26934 6.06516 8.59784 5.89442 8.92636ZM8.91124 5.90683C9.27034 5.89139 9.63371 5.8835 9.99981 5.8835H10.0001C10.3677 5.8835 10.7317 5.89144 11.0909 5.90698C10.732 5.43682 10.3675 4.99974 10.0039 4.60224C9.6382 4.99925 9.27191 5.43596 8.91124 5.90683ZM9.34984 3.92871C8.78542 4.5377 8.22437 5.23109 7.68508 5.99015C6.74255 6.07823 5.84461 6.21903 5.02204 6.40572C4.98378 6.24925 4.9497 6.09539 4.91999 5.94439C4.71375 4.89601 4.70068 3.9969 4.82701 3.32033C4.95654 2.62662 5.21366 2.25192 5.46325 2.10781C5.70232 1.96979 6.12161 1.9347 6.74222 2.15387C7.34973 2.36841 8.07526 2.80313 8.84558 3.46756C9.01208 3.61118 9.18041 3.76513 9.34984 3.92871ZM10.6607 3.93136C11.2216 4.54105 11.7801 5.23484 12.3162 5.99093C13.2474 6.07884 14.1322 6.21889 14.9449 6.40445C14.9737 6.28473 15.0001 6.1666 15.0242 6.05017C15.2477 4.96772 15.278 4.0421 15.162 3.34657C15.0431 2.63312 14.7889 2.25342 14.5367 2.10782C14.2999 1.97107 13.8745 1.94011 13.2378 2.17384C12.6169 2.40176 11.8775 2.85419 11.0987 3.53122C10.9537 3.65731 10.8075 3.79081 10.6607 3.93136ZM14.6922 7.30846C14.1613 7.18876 13.595 7.08879 13.0015 7.01116C13.1944 7.31443 13.3829 7.62518 13.566 7.94224L13.5661 7.94252C13.7522 8.26479 13.9294 8.58796 14.0973 8.91068C14.3297 8.36158 14.5293 7.82456 14.6922 7.30846ZM15.6013 7.54268C15.3536 8.33583 15.0265 9.16736 14.6347 10.0099C15.0226 10.8576 15.3425 11.6912 15.5873 12.4852C15.7054 12.4503 15.821 12.4142 15.9338 12.3768C16.983 12.0292 17.7998 11.5925 18.3441 11.1444C18.9025 10.6847 19.1043 10.2747 19.1043 9.98345C19.1043 9.70997 18.9184 9.32612 18.3976 8.89159C17.8898 8.46786 17.1283 8.05367 16.1526 7.71776C15.9753 7.65673 15.7914 7.59832 15.6013 7.54268ZM11.786 9.98346C11.786 10.9698 10.9865 11.7694 10.0001 11.7694C9.01375 11.7694 8.21415 10.9698 8.21415 9.98346C8.21415 8.99711 9.01375 8.19751 10.0001 8.19751C10.9865 8.19751 11.786 8.99711 11.786 9.98346Z" fill="#EEEEEE" fill-opacity="0.9"/>
</g>
<defs>
<clipPath id="clip0_15_90">
<rect width="20" height="20" fill="white"/>
</clipPath>
</defs>
</svg>
