<svg width="20" height="20" viewBox="0 0 20 20" fill="none" xmlns="http://www.w3.org/2000/svg">
<g clip-path="url(#clip0_15_69)">
<path d="M17.0695 2.92738C13.1637 -0.97727 6.83203 -0.976333 2.92738 2.92953C-0.97727 6.83538 -0.976333 13.167 2.92953 17.0717C6.83539 20.9763 13.167 20.9754 17.0717 17.0695C18.9469 15.1937 20.0001 12.6498 19.9995 9.99738C19.999 7.34542 18.945 4.8023 17.0695 2.92738ZM15.1442 13.9294C15.1437 13.9298 15.1433 13.9303 15.1428 13.9307V13.9274L14.6362 14.4307C13.9809 15.0943 13.0266 15.3673 12.1195 15.1507C11.2056 14.9061 10.3369 14.5167 9.54617 13.9974C8.81156 13.5279 8.13078 12.9791 7.51617 12.3607C6.95066 11.7994 6.44261 11.183 5.99949 10.5207C5.5148 9.80816 5.13117 9.03191 4.85949 8.21406C4.54804 7.25327 4.80613 6.19902 5.52617 5.49074L6.11949 4.89742C6.28445 4.73171 6.5525 4.73113 6.71816 4.89609C6.71859 4.89652 6.71906 4.89695 6.71949 4.89742L8.59281 6.77074C8.75851 6.9357 8.7591 7.20374 8.59414 7.36941C8.59371 7.36984 8.59328 7.37027 8.59281 7.37074L7.49281 8.47074C7.17718 8.78292 7.1375 9.27902 7.39949 9.63741C7.79734 10.1834 8.23761 10.6972 8.71617 11.1741C9.24972 11.71 9.82976 12.1974 10.4495 12.6308C10.8076 12.8805 11.293 12.8384 11.6028 12.5308L12.6661 11.4508C12.8311 11.2851 13.0991 11.2845 13.2648 11.4494C13.2652 11.4499 13.2657 11.4503 13.2661 11.4508L15.1428 13.3308C15.3085 13.4957 15.3091 13.7637 15.1442 13.9294Z" fill="#EEEEEE" fill-opacity="0.9"/>
</g>
<defs>
<clipPath id="clip0_15_69">
<rect width="20" height="20" fill="white"/>
</clipPath>
</defs>
</svg>
