<svg width="20" height="20" viewBox="0 0 20 20" fill="none" xmlns="http://www.w3.org/2000/svg">
<path fill-rule="evenodd" clip-rule="evenodd" d="M0 0V10V20H20V0H0ZM4.38497 10.8501V10.0351L4.39997 10.0401V9.22003L7.90003 9.20503C9.82505 9.20503 11.4101 9.21003 11.4101 9.22503C11.4301 9.23503 11.4301 9.60004 11.4301 10.0501V10.8501H8.83004V18.2502H6.98501V10.8501H4.38497ZM17.3202 9.91505C16.9702 9.55004 16.5802 9.32003 16.0701 9.20003L16.0801 9.19003C15.7351 9.10003 14.9101 9.07003 14.5601 9.14003C13.4801 9.34004 12.7251 10.0401 12.5101 11.0401C12.4401 11.3251 12.4651 12.0351 12.5401 12.3251C12.6401 12.6601 12.8551 13.0651 13.0901 13.3251C13.5001 13.7551 13.9401 14.0351 14.9751 14.4751C15.8751 14.8752 16.1951 15.0552 16.3551 15.2752C16.4701 15.4502 16.5051 15.5552 16.5051 15.7852C16.5051 16.0352 16.4251 16.2152 16.2401 16.3852C15.8101 16.7752 14.9401 16.8202 14.2901 16.4852C14.0751 16.3652 13.7051 16.0152 13.5401 15.7552L13.4101 15.5802L12.8451 15.9102L12.0951 16.3452L11.9051 16.4652C11.8851 16.5002 12.2401 17.0352 12.4251 17.2352C12.8951 17.7502 13.6601 18.1502 14.4601 18.3002C14.8351 18.3652 15.6351 18.3752 15.9851 18.3152C17.1002 18.1302 17.8802 17.5652 18.2002 16.7302C18.4852 15.9652 18.3902 14.9452 17.9652 14.2951C17.5902 13.7151 16.9702 13.3101 15.5401 12.6951C14.7651 12.3551 14.5151 12.1901 14.3801 11.9151C14.3201 11.7851 14.2901 11.6951 14.2901 11.5351C14.2901 11.0101 14.6901 10.6951 15.2901 10.7351C15.7051 10.7651 15.9701 10.9251 16.2301 11.2951C16.3101 11.4251 16.3902 11.5101 16.4102 11.4951C16.9352 11.1701 17.8002 10.5851 17.8002 10.5551C17.7802 10.4651 17.5052 10.1151 17.3202 9.91505Z" fill="#EEEEEE" fill-opacity="0.9"/>
</svg>
