<svg width="20" height="20" viewBox="0 0 20 20" fill="none" xmlns="http://www.w3.org/2000/svg">
<path fill-rule="evenodd" clip-rule="evenodd" d="M17.8256 16.2264C17.824 16.2283 17.8225 16.2303 17.821 16.2322C17.6136 16.4921 17.3936 16.7414 17.1618 16.9792C15.3982 18.7886 12.9546 19.9322 10.2439 19.9971C10.1961 19.999 10.1481 20 10.1 20C10.0876 20 10.0753 19.9999 10.0629 19.9998C10.0419 19.9999 10.021 20 10 20C7.19215 20 4.65458 18.8428 2.83824 16.9792C2.81245 16.9527 2.78681 16.9261 2.76131 16.8994C2.55595 16.684 2.3601 16.4594 2.17444 16.2264C0.813385 14.5181 0 12.354 0 10C0 7.6269 0.826623 5.44687 2.20764 3.73214C2.4066 3.4851 2.61707 3.24771 2.83824 3.0208C4.65458 1.15725 7.19214 0 10 0C10.021 0 10.0419 6.46051e-05 10.0629 0.000193627C10.0753 6.46051e-05 10.0876 0 10.1 0C10.1481 0 10.1961 0.000975746 10.2439 0.0029162C12.9912 0.0686789 15.4642 1.24246 17.2329 3.09452C17.4404 3.31178 17.6382 3.53836 17.8256 3.77359C19.1866 5.48194 20 7.64598 20 10C20 12.354 19.1866 14.5181 17.8256 16.2264ZM9.5 15.0077V18.9273C8.5535 18.6985 7.59379 17.9264 6.78934 16.5629C6.58974 16.2246 6.40454 15.8567 6.23637 15.4627C7.23413 15.2044 8.33412 15.0436 9.5 15.0077ZM10.5 15.0077V18.9676C11.5104 18.8045 12.5495 18.0226 13.4107 16.5629C13.6022 16.2383 13.7804 15.8865 13.9431 15.5105C12.8983 15.2242 11.7362 15.0458 10.5 15.0077ZM14.2997 14.5717C13.1391 14.2451 11.855 14.0466 10.5 14.0072V10.5H14.9923C14.9464 11.9902 14.6966 13.3727 14.2997 14.5717ZM14.9007 15.8146C14.4771 16.8174 13.9469 17.6819 13.3382 18.3606C14.4488 17.9167 15.4504 17.258 16.2914 16.4357C15.8671 16.2054 15.4015 15.9969 14.9007 15.8146ZM16.9839 15.6772C16.4592 15.3751 15.8784 15.1068 15.2516 14.8781C15.6832 13.5717 15.9467 12.0843 15.9928 10.5H18.9863C18.8791 12.458 18.1461 14.2492 16.9839 15.6772ZM16.2914 3.5643C15.4504 2.74202 14.4488 2.08325 13.3382 1.63939C13.9469 2.31808 14.4771 3.18263 14.9007 4.18541C15.4015 4.00312 15.8671 3.79458 16.2914 3.5643ZM15.2516 5.12188C15.8784 4.89323 16.4592 4.62488 16.9839 4.32277C18.1461 5.75077 18.8791 7.54205 18.9863 9.5H15.9928C15.9467 7.91567 15.6832 6.42829 15.2516 5.12188ZM13.9431 4.48948C13.7804 4.1135 13.6022 3.76167 13.4107 3.43708C12.5495 1.97744 11.5104 1.19549 10.5 1.03238V4.99231C11.7362 4.9542 12.8983 4.7758 13.9431 4.48948ZM10.5 5.99275C11.855 5.95339 13.1391 5.75491 14.2997 5.42831C14.6966 6.62732 14.9464 8.00983 14.9923 9.5H10.5V5.99275ZM9.5 4.99231V1.07269C8.5535 1.30146 7.59379 2.0736 6.78934 3.43708C6.58974 3.77539 6.40454 4.1433 6.23637 4.5373C7.23413 4.79564 8.33412 4.95637 9.5 4.99231ZM5.88382 5.4786C6.99573 5.77527 8.21603 5.95545 9.5 5.99275V9.5H5.20769C5.25299 8.03062 5.49649 6.66591 5.88382 5.4786ZM5.27345 4.24722C5.72547 3.15974 6.3022 2.23188 6.96838 1.52336C5.73516 1.96446 4.6263 2.66704 3.70859 3.5643C4.18166 3.82105 4.70607 4.05077 5.27345 4.24722ZM3.01615 4.32277C3.59047 4.65346 4.23199 4.9437 4.92749 5.1857C4.50834 6.47665 4.25253 7.94141 4.20725 9.5H1.01365C1.12087 7.54205 1.8539 5.75077 3.01615 4.32277ZM3.70859 16.4357C4.62631 17.333 5.73516 18.0355 6.96838 18.4766C6.3022 17.7681 5.72547 16.8403 5.27345 15.7528C4.70607 15.9492 4.18166 16.179 3.70859 16.4357ZM4.92749 14.8143C4.23199 15.0563 3.59047 15.3465 3.01615 15.6772C1.8539 14.2492 1.12087 12.458 1.01365 10.5H4.20725C4.25253 12.0586 4.50834 13.5234 4.92749 14.8143ZM5.88382 14.5214C5.49649 13.3341 5.25299 11.9694 5.20769 10.5H9.5V14.0072C8.21603 14.0446 6.99573 14.2247 5.88382 14.5214Z" fill="#EEEEEE" fill-opacity="0.9"/>
</svg>
