<svg width="15" height="15" viewBox="0 0 15 15" fill="none" xmlns="http://www.w3.org/2000/svg">
<path d="M14.9887 5.10273C14.9853 5.08455 14.9822 5.06637 14.9774 5.0486C14.9743 5.03789 14.9707 5.02779 14.9673 5.01729C14.9622 5.00153 14.957 4.98578 14.9507 4.97042C14.9463 4.95972 14.9412 4.94942 14.9364 4.93911C14.9295 4.92457 14.9224 4.91023 14.9144 4.89629C14.9087 4.88599 14.9022 4.87629 14.896 4.86639C14.8873 4.85306 14.8784 4.83993 14.8687 4.82721C14.8616 4.81771 14.8544 4.80862 14.8467 4.79953C14.8366 4.78741 14.8257 4.7759 14.8148 4.76459C14.8063 4.7561 14.7978 4.74762 14.7889 4.73934C14.7772 4.72863 14.7651 4.71853 14.7523 4.70884C14.7427 4.70136 14.7332 4.69369 14.7231 4.68682C14.7194 4.68419 14.7162 4.68116 14.7124 4.67874L7.85734 0.108322C7.641 -0.0361072 7.3588 -0.0361072 7.14246 0.108322L0.28704 4.67854C0.283202 4.68096 0.280172 4.68399 0.276334 4.68662C0.266234 4.69369 0.25674 4.70116 0.247044 4.70863C0.23452 4.71853 0.222198 4.72863 0.210482 4.73893C0.201594 4.74701 0.19311 4.7555 0.184829 4.76418C0.173517 4.7755 0.163013 4.78701 0.152711 4.79913C0.145035 4.80822 0.137763 4.81731 0.130693 4.82741C0.120997 4.84014 0.112109 4.85306 0.103423 4.8666C0.0971612 4.87649 0.0908993 4.88619 0.0850413 4.89649C0.0769614 4.91043 0.0698915 4.92477 0.0632255 4.93891C0.0583775 4.94921 0.0531256 4.95972 0.0488836 4.97022C0.0426217 4.98557 0.0371677 5.00133 0.0321178 5.01709C0.0286838 5.02759 0.0250478 5.03789 0.0222198 5.04739C0.0175739 5.06516 0.0141399 5.08314 0.0109079 5.10152C0.00908993 5.11081 0.00686795 5.1199 0.00565596 5.1294C0.00201998 5.15727 0 5.18515 0 5.21363V9.78485C0 9.81313 0.00201998 9.84141 0.00605995 9.86909C0.00747394 9.87919 0.0100999 9.88727 0.0121199 9.89696C0.0153519 9.91514 0.0181799 9.93332 0.0242398 9.9515C0.0270678 9.9616 0.0302998 9.9717 0.0343397 9.98281C0.0393897 9.99897 0.0444397 10.0151 0.0504996 10.0299C0.0547416 10.04 0.0605995 10.0501 0.0646395 10.0602C0.0713054 10.0743 0.0787794 10.0885 0.0868593 10.1032C0.0925153 10.1133 0.0989792 10.1234 0.105039 10.1327C0.113725 10.1468 0.123219 10.159 0.133319 10.1711C0.140389 10.1812 0.147459 10.1893 0.155539 10.199C0.165841 10.2111 0.175739 10.2232 0.187859 10.2339C0.19614 10.242 0.204018 10.2521 0.214118 10.2581C0.225834 10.2682 0.238358 10.2783 0.250478 10.2888C0.260174 10.2969 0.270678 10.303 0.278758 10.3109C0.282596 10.3129 0.284818 10.3169 0.288858 10.3187L7.14246 14.8914C7.25073 14.9641 7.37476 15.0005 7.5 14.9998C7.62524 14.9992 7.74927 14.9635 7.85754 14.8914L14.713 10.3212C14.7168 10.3187 14.72 10.3159 14.7237 10.3133C14.7338 10.3062 14.7433 10.2987 14.753 10.2913C14.7655 10.2814 14.7778 10.2711 14.7895 10.2606C14.7984 10.2527 14.8069 10.244 14.8154 10.2355C14.8265 10.2242 14.8372 10.2127 14.8473 10.2006C14.855 10.1915 14.8622 10.1824 14.8693 10.1727C14.879 10.16 14.8879 10.1468 14.8966 10.1335C14.9028 10.1238 14.9091 10.1139 14.915 10.104C14.923 10.0899 14.9301 10.0755 14.937 10.061C14.9418 10.0507 14.9469 10.0404 14.9513 10.0299C14.9576 10.0143 14.9628 9.99857 14.9679 9.98281C14.9713 9.97231 14.975 9.96201 14.978 9.9515C14.9826 9.93373 14.9859 9.91555 14.9893 9.89737C14.9909 9.88808 14.9933 9.87899 14.9943 9.86949C14.998 9.84162 15 9.81374 15 9.78526V5.21484C15 5.18636 14.9978 5.15848 14.9943 5.13061C14.9927 5.12071 14.9897 5.11263 14.9877 5.10273H14.9887ZM7.4998 9.02473L5.22025 7.50005L7.4998 5.97516L9.77955 7.50005L7.4998 9.02473ZM6.85542 4.85549L4.06098 6.72458L1.80526 5.21565L6.85542 1.84894V4.85549ZM2.90171 7.49985L1.28936 8.57832V6.42138L2.90171 7.49985ZM4.06098 8.27593L6.85542 10.1448V13.1514L1.80526 9.78425L4.06098 8.27552V8.27593ZM8.14437 10.1444L10.9388 8.27552L13.1947 9.78425L8.14437 13.151V10.1444ZM12.0981 7.50025L13.7106 6.42158V8.57872L12.0981 7.49985V7.50025ZM10.9388 6.72458L8.14437 4.85569V1.84894L13.1947 5.21565L10.9388 6.72458Z" fill="black"/>
</svg>
